<?xml version="1.0" encoding="UTF-8"?>
<!DOCTYPE svg PUBLIC "-//W3C//DTD SVG 1.1//EN" "http://www.w3.org/Graphics/SVG/1.1/DTD/svg11.dtd">
<!-- Creator: CorelDRAW 2017 -->
<svg xmlns="http://www.w3.org/2000/svg" xml:space="preserve" width="182px" height="111px" version="1.1" style="shape-rendering:geometricPrecision; text-rendering:geometricPrecision; image-rendering:optimizeQuality; fill-rule:evenodd; clip-rule:evenodd"
viewBox="0 0 182 111.31"
 xmlns:xlink="http://www.w3.org/1999/xlink">
 <defs>
  <style type="text/css">
   <![CDATA[
    .str0 {stroke:white;stroke-width:0.6;stroke-miterlimit:22.9256}
    .fil0 {fill:#FA2020}
    .fil2 {fill:white}
    .fil3 {fill:white}
    .fil1 {fill:white;fill-rule:nonzero}
    .fil4 {fill:white;fill-rule:nonzero}
   ]]>
  </style>
 </defs>
 <g id="Capa_x0020_1">
  <metadata id="CorelCorpID_0Corel-Layer"/>
  <g id="_644618144">
   <rect class="fil0" transform="matrix(5.17976E-15 -0.171512 0.195577 4.54241E-15 4.5796 110.473)" width="631.74" height="893.45" rx="150.41" ry="150.41"/>
   <path class="fil1" d="M80.65 111.28c-0.2,-26.75 12.88,-51.21 10.6,-77.13 5.99,0 11.97,0 17.96,0 -3.69,7.57 -3.02,15.57 -4.54,23.35l49.08 -57.48 23.2 0c-14.3,23.35 -39.81,39.02 -56.6,62.58 3.68,12.36 15.24,22.65 22.85,33.97l-21.23 0c-6.27,-9.85 -7.97,-20.96 -18.8,-29.57 -4.01,13.29 -3.12,29.52 -4.68,44.28 -5.94,0 -11.89,0 -17.84,0z"/>
   <path class="fil1" d="M31.96 68.14c4.05,4.47 12.23,16.28 19.01,16.28 2.08,0 3.64,-0.87 4.7,-2.6 6.26,-10.26 12.42,-67.22 12.81,-80.62l18.02 0 -10.46 73.25c-0.04,0.28 -0.09,0.68 -0.17,1.2 -5.83,38.16 -34.7,26.57 -52.73,4.98l8.82 -12.49z"/>
   <circle class="fil2 str0" cx="100.25" cy="20.88" r="8.86"/>
   <circle class="fil3 str0" cx="100.25" cy="20.88" r="6.5"/>
   <g>
    <path class="fil4" d="M37.68 56.1l-36.52 0 0 -1.85 36.52 0 0 0 0 1.85zm1.92 -0.04l-2.07 0 0 0 0 0 0 -0.01 0 0 0 0 0 0 0 0 0 0 0 0 -0.01 -0.01 0.01 0.01 0 0 0 0 0 0 0 0 0 0 0 0 0 0.01 0.01 0 0 0 0.01 0.01 0 0 0.01 0 0.01 0.01 0.01 0 0.01 0.01 0.01 0 0.01 0 0.01 0.01 0.02 0 0.01 0 0.02 0 0.01 0 0 -1.85 0.1 0 0.11 0.01 0.1 0.01 0.1 0.02 0.1 0.02 0.1 0.03 0.09 0.03 0.09 0.04 0.08 0.03 0.09 0.05 0.09 0.05 0.07 0.05 0.07 0.05 0.08 0.06 0.07 0.06 0.06 0.06 0.06 0.06 0.06 0.07 0.05 0.07 0.05 0.07 0.05 0.07 0.04 0.07 0.04 0.08 0.04 0.08 0.03 0.08 0.03 0.08 0.02 0.08 0.02 0.09 0.01 0.08 0.02 0.09 0 0.09 0 0.08 0 0zm-2.07 0l0 0 2.07 0 0 0 0 0 -2.07 0zm0.15 1.82l0 -1.86 0 0 -0.01 0 -0.02 0 -0.01 0.01 -0.02 0 -0.01 0 -0.01 0.01 -0.01 0 -0.01 0 -0.01 0.01 -0.01 0 -0.01 0.01 0 0 -0.01 0 0 0.01 -0.01 0 0 0 0 0 0 0.01 0 0 0 0 0 0 0 0 -0.01 0 0.01 0 0 0 0 -0.01 0 0 0 0 0 0 0 0 0 0 0 -0.01 2.07 0 0 0.09 0 0.09 -0.02 0.08 -0.01 0.09 -0.02 0.08 -0.02 0.09 -0.03 0.08 -0.03 0.08 -0.04 0.07 -0.04 0.08 -0.04 0.08 -0.05 0.07 -0.05 0.07 -0.05 0.07 -0.06 0.06 -0.06 0.07 -0.06 0.06 -0.07 0.06 -0.08 0.06 -0.07 0.05 -0.07 0.05 -0.09 0.04 -0.09 0.05 -0.08 0.04 -0.09 0.03 -0.09 0.04 -0.1 0.02 -0.1 0.03 -0.1 0.01 -0.1 0.02 -0.11 0.01 -0.1 0 0 0zm-36.52 -1.86l36.52 0 0 1.86 -36.52 0 0 0 0 -1.86zm-1.93 0.04l2.08 0 0 0 0 0.01 0 0 0 0 0 0 0 0 0 0 0 0.01 0 0 0 0 0 0 0 0 0 0 0 0 0 0 0 0 0 -0.01 -0.01 0 0 0 0 -0.01 -0.01 0 0 0 -0.01 -0.01 -0.01 0 -0.01 -0.01 -0.01 0 -0.01 0 -0.01 -0.01 -0.02 0 -0.01 0 -0.01 -0.01 -0.02 0 -0.01 0 0 1.86 -0.1 0 -0.11 -0.01 -0.1 -0.02 -0.1 -0.01 -0.1 -0.03 -0.1 -0.02 -0.09 -0.04 -0.09 -0.03 -0.08 -0.04 -0.09 -0.05 -0.09 -0.04 -0.07 -0.05 -0.07 -0.05 -0.08 -0.06 -0.06 -0.06 -0.07 -0.06 -0.06 -0.07 -0.06 -0.06 -0.05 -0.07 -0.05 -0.07 -0.05 -0.07 -0.04 -0.08 -0.04 -0.08 -0.04 -0.07 -0.03 -0.08 -0.03 -0.08 -0.02 -0.09 -0.02 -0.08 -0.02 -0.09 -0.01 -0.08 0 -0.09 -0.01 -0.09 0 0zm2.08 0l0 0 -2.08 0 0 0 0 0 2.08 0zm-0.15 -1.81l0 1.85 0 0 0.01 0 0.02 0 0.01 0 0.01 0 0.02 -0.01 0.01 0 0.01 0 0.01 -0.01 0.01 0 0.01 -0.01 0.01 0 0 0 0.01 -0.01 0 0 0 0 0.01 -0.01 0 0 0 0 0 0 0 0 0 0 0 0 0 -0.01 0 0.01 0 0 0 0 0 0 0 0 0 0 0 0 0 0.01 0 0 -2.08 0 0.01 -0.08 0 -0.09 0.01 -0.09 0.02 -0.08 0.02 -0.09 0.02 -0.08 0.03 -0.08 0.03 -0.08 0.04 -0.08 0.04 -0.08 0.04 -0.07 0.05 -0.07 0.05 -0.07 0.05 -0.07 0.06 -0.07 0.06 -0.06 0.07 -0.07 0.06 -0.05 0.08 -0.06 0.07 -0.05 0.07 -0.05 0.09 -0.05 0.09 -0.05 0.08 -0.03 0.09 -0.04 0.09 -0.03 0.1 -0.03 0.1 -0.02 0.1 -0.02 0.1 -0.01 0.11 -0.01 0.1 0 0 0z"/>
    <path id="1" class="fil3" d="M1.16 55.17l36.52 0c0.49,0 0.89,0.4 0.89,0.89l0 0c0,0.49 -0.4,0.89 -0.89,0.89l-36.52 0c-0.49,0 -0.89,-0.4 -0.89,-0.89l0 0c0,-0.49 0.4,-0.89 0.89,-0.89z"/>
   </g>
   <g>
    <path class="fil4" d="M180.84 56.1l-36.52 0 0 -1.85 36.52 0 0 0 0 1.85zm1.93 -0.04l-2.08 0 0 0 0 0 0 -0.01 0 0 0 0 0 0 0 0 0 0 0 0 0 -0.01 0 0.01 0 0 0 0 0 0 0 0 0 0 0 0 0.01 0.01 0 0 0 0 0.01 0.01 0 0 0.01 0 0.01 0.01 0.01 0 0.01 0.01 0.01 0 0.01 0 0.02 0.01 0.01 0 0.01 0 0.02 0 0.01 0 0 -1.85 0.1 0 0.11 0.01 0.1 0.01 0.1 0.02 0.1 0.02 0.1 0.03 0.09 0.03 0.09 0.04 0.08 0.03 0.09 0.05 0.09 0.05 0.07 0.05 0.07 0.05 0.08 0.06 0.06 0.05 0.07 0.07 0.06 0.06 0.06 0.07 0.05 0.07 0.05 0.07 0.05 0.07 0.04 0.07 0.04 0.08 0.04 0.08 0.03 0.08 0.03 0.08 0.02 0.08 0.02 0.09 0.02 0.08 0.01 0.09 0 0.09 0.01 0.08 0 0zm-2.08 0l0 0 2.08 0 0 0 0 0 -2.08 0zm0.15 1.82l0 -1.86 0 0 -0.01 0 -0.02 0 -0.01 0.01 -0.01 0 -0.02 0 -0.01 0.01 -0.01 0 -0.01 0 -0.01 0.01 -0.01 0 -0.01 0.01 0 0 -0.01 0 0 0.01 0 0 -0.01 0 0 0.01 0 0 0 0 0 0 0 0 0 0 0 0 0 0 0 0 0 -0.01 0 0 0 0 0 0 0 0 0 0 0 -0.01 2.08 0 -0.01 0.09 0 0.09 -0.01 0.08 -0.02 0.09 -0.02 0.08 -0.02 0.09 -0.03 0.08 -0.03 0.08 -0.04 0.07 -0.04 0.08 -0.04 0.08 -0.05 0.07 -0.05 0.07 -0.05 0.07 -0.06 0.06 -0.06 0.07 -0.07 0.06 -0.06 0.06 -0.08 0.06 -0.07 0.05 -0.07 0.05 -0.09 0.04 -0.09 0.05 -0.08 0.04 -0.09 0.03 -0.09 0.04 -0.1 0.02 -0.1 0.03 -0.1 0.01 -0.1 0.02 -0.11 0.01 -0.1 0 0 0zm-36.52 -1.86l36.52 0 0 1.86 -36.52 0 0 0 0 -1.86zm-1.92 0.04l2.07 0 0 0 0 0.01 0 0 0 0 0 0 0 0 0 0 0 0.01 0 0 0.01 0 0 0 -0.01 0 0 0 0 0 0 0 0 -0.01 0 0 -0.01 0 0 0 0 -0.01 -0.01 0 0 0 -0.01 -0.01 -0.01 0 -0.01 -0.01 -0.01 0 -0.01 -0.01 -0.01 0 -0.01 0 -0.02 0 -0.01 -0.01 -0.02 0 -0.01 0 0 1.86 -0.1 0 -0.11 -0.01 -0.1 -0.02 -0.1 -0.01 -0.1 -0.03 -0.1 -0.02 -0.09 -0.04 -0.09 -0.03 -0.09 -0.04 -0.08 -0.05 -0.08 -0.04 -0.08 -0.05 -0.08 -0.06 -0.07 -0.05 -0.06 -0.06 -0.07 -0.06 -0.06 -0.07 -0.06 -0.06 -0.05 -0.07 -0.05 -0.07 -0.05 -0.07 -0.04 -0.08 -0.04 -0.08 -0.04 -0.07 -0.03 -0.08 -0.03 -0.08 -0.02 -0.09 -0.02 -0.08 -0.01 -0.09 -0.02 -0.08 0 -0.09 0 -0.09 0 0zm2.07 0l0 0 -2.07 0 0 0 0 0 2.07 0zm-0.15 -1.81l0 1.85 0 0 0.01 0 0.02 0 0.01 0 0.02 0 0.01 -0.01 0.01 0 0.01 0 0.01 -0.01 0.01 0 0.01 -0.01 0.01 0 0 0 0.01 -0.01 0 0 0 0 0.01 -0.01 0 0 0 0 0 0 0 0 0 0 0.01 -0.01 0 0 -0.01 0.01 0 0 0 0 0 0 0 0 0 0 0 0 0 0.01 0 0 -2.07 0 0 -0.08 0 -0.09 0.02 -0.09 0.01 -0.08 0.02 -0.09 0.02 -0.08 0.03 -0.08 0.03 -0.08 0.04 -0.08 0.04 -0.07 0.04 -0.08 0.05 -0.08 0.05 -0.06 0.05 -0.07 0.06 -0.07 0.06 -0.07 0.07 -0.06 0.06 -0.05 0.07 -0.06 0.08 -0.05 0.08 -0.05 0.08 -0.05 0.08 -0.04 0.09 -0.04 0.09 -0.04 0.09 -0.03 0.1 -0.03 0.1 -0.02 0.1 -0.02 0.1 -0.01 0.11 -0.01 0.1 0 0 0z"/>
    <path id="1" class="fil3" d="M144.32 55.17l36.52 0c0.49,0 0.89,0.4 0.89,0.89l0 0c0,0.49 -0.4,0.89 -0.89,0.89l-36.52 0c-0.49,0 -0.89,-0.4 -0.89,-0.89l0 0c0,-0.49 0.4,-0.89 0.89,-0.89z"/>
   </g>
   <g>
    <path class="fil4" d="M38.32 60.08l-37.8 0 0 -1.03 37.8 0 0 0 0 1.03zm1.28 -0.27l-2.07 0 0 0 0 0 0 0 0 0.01 0 0 0 -0.01 0 0.01 0 0 0 0 0 0 0 0.01 0.01 0.01 0 0 0 0 0.01 0.01 0.01 0.01 0 0.01 0.01 0.01 0.01 0.01 0.03 0.01 0.01 0.01 0.01 0.01 0.04 0.02 0.04 0.02 0.03 0.02 0.04 0.01 0.06 0.02 0.07 0.02 0.05 0.01 0.08 0.02 0.11 0.01 0.08 0.01 0.09 0 0 -1.03 0.11 0 0.11 0.01 0.14 0.02 0.1 0.02 0.07 0.01 0.09 0.03 0.09 0.03 0.06 0.02 0.05 0.02 0.06 0.04 0.06 0.03 0.04 0.02 0.03 0.02 0.04 0.04 0.03 0.02 0.02 0.03 0.03 0.02 0.02 0.03 0.02 0.03 0.02 0.02 0.01 0.02 0.02 0.03 0.01 0.03 0.01 0.02 0.01 0.02 0.01 0.03 0.01 0.03 0 0.02 0.01 0.02 0 0.03 0 0.03 0 0.02 0 0zm-1.03 0l0 0 0 0 0 0 1.03 0 -1.03 0zm-0.25 0.77l0 -1.04 0 0 -0.09 0 -0.08 0.01 -0.11 0.01 -0.08 0.02 -0.05 0.01 -0.07 0.02 -0.06 0.02 -0.04 0.02 -0.03 0.01 -0.04 0.02 -0.04 0.02 -0.01 0.01 -0.01 0.01 -0.03 0.02 -0.01 0.01 -0.01 0.01 0 0 -0.01 0.01 -0.01 0.01 0 0 0 0.01 -0.01 0 0 0.01 0 0 0 0 0 0.01 0 0 0 0 0 0 0 0 0 0 0 0 2.07 0 0 0.03 0 0.02 0 0.03 -0.01 0.03 0 0.02 -0.01 0.02 -0.01 0.03 -0.01 0.02 -0.01 0.03 -0.01 0.02 -0.02 0.03 -0.01 0.03 -0.02 0.02 -0.02 0.03 -0.02 0.02 -0.03 0.03 -0.02 0.02 -0.03 0.03 -0.04 0.03 -0.03 0.02 -0.04 0.02 -0.06 0.04 -0.06 0.03 -0.05 0.02 -0.06 0.03 -0.09 0.03 -0.09 0.02 -0.07 0.02 -0.1 0.02 -0.14 0.01 -0.11 0.01 -0.11 0.01 0 0zm-37.8 -1.04l37.8 0 0 1.04 -37.8 0 0 0 0 -1.04zm-1.29 0.27l2.08 0 0 0 0 0 0 0 0 0 0 0 0 0 0 0 0 -0.01 0 0 0 0 0 -0.01 -0.01 0 0 -0.01 0 0 -0.01 -0.01 -0.01 -0.01 0 0 -0.01 -0.01 -0.02 -0.01 -0.02 -0.02 -0.01 -0.01 -0.01 -0.01 -0.04 -0.02 -0.04 -0.02 -0.03 -0.01 -0.04 -0.02 -0.06 -0.02 -0.07 -0.02 -0.05 -0.01 -0.08 -0.02 -0.11 -0.01 -0.08 -0.01 -0.09 0 0 1.04 -0.11 -0.01 -0.11 -0.01 -0.14 -0.01 -0.1 -0.02 -0.07 -0.02 -0.09 -0.02 -0.09 -0.03 -0.06 -0.03 -0.05 -0.02 -0.06 -0.03 -0.06 -0.04 -0.04 -0.02 -0.03 -0.02 -0.04 -0.03 -0.03 -0.03 -0.02 -0.02 -0.03 -0.03 -0.02 -0.02 -0.02 -0.03 -0.02 -0.02 -0.01 -0.03 -0.02 -0.03 -0.01 -0.02 -0.01 -0.03 -0.01 -0.02 -0.01 -0.03 -0.01 -0.02 0 -0.02 -0.01 -0.03 0 -0.03 0 -0.02 -0.01 -0.03 0 0zm1.04 0l0 0 0 0 0 0 -1.04 0 1.04 0zm0.25 -0.76l0 1.03 0 0 0.09 0 0.08 -0.01 0.11 -0.01 0.08 -0.02 0.05 -0.01 0.07 -0.02 0.06 -0.02 0.04 -0.01 0.03 -0.02 0.04 -0.02 0.04 -0.02 0.01 -0.01 0.01 -0.01 0.02 -0.01 0.02 -0.01 0.01 -0.01 0 -0.01 0.01 -0.01 0.01 -0.01 0 0 0 0 0.01 -0.01 0 -0.01 0 0 0 0 0 0 0 -0.01 0 0.01 0 0 0 -0.01 0 0 0 0 -2.08 0 0.01 -0.02 0 -0.03 0 -0.03 0.01 -0.02 0 -0.02 0.01 -0.03 0.01 -0.03 0.01 -0.02 0.01 -0.02 0.01 -0.03 0.02 -0.03 0.01 -0.02 0.02 -0.02 0.02 -0.03 0.02 -0.03 0.03 -0.02 0.02 -0.03 0.03 -0.02 0.04 -0.04 0.03 -0.02 0.04 -0.02 0.06 -0.03 0.06 -0.04 0.05 -0.02 0.06 -0.02 0.09 -0.03 0.09 -0.03 0.07 -0.01 0.1 -0.02 0.14 -0.02 0.11 -0.01 0.11 0 0 0z"/>
    <path id="1" class="fil3" d="M0.52 59.56l37.8 0c0.14,0 0.25,0.12 0.25,0.25l0 0c0,0.14 -0.11,0.25 -0.25,0.25l-37.8 0c-0.14,0 -0.25,-0.11 -0.25,-0.25l0 0c0,-0.13 0.11,-0.25 0.25,-0.25z"/>
   </g>
   <g>
    <path class="fil4" d="M181.48 60.08l-37.8 0 0 -1.03 37.8 0 0 0 0 1.03zm1.29 -0.27l-2.08 0 0 0 0 0 0 0 0 0.01 0 0 0 -0.01 0 0.01 0 0 0 0 0 0 0 0.01 0.01 0.01 0 0 0 0 0.01 0.01 0.01 0.01 0 0.01 0.01 0.01 0.02 0.01 0.02 0.01 0.01 0.01 0.01 0.01 0.04 0.02 0.04 0.02 0.03 0.02 0.04 0.01 0.06 0.02 0.07 0.02 0.05 0.01 0.08 0.02 0.11 0.01 0.08 0.01 0.09 0 0 -1.03 0.11 0 0.11 0.01 0.14 0.02 0.1 0.02 0.07 0.01 0.09 0.03 0.09 0.03 0.06 0.02 0.05 0.02 0.06 0.04 0.06 0.03 0.04 0.02 0.03 0.02 0.04 0.04 0.03 0.02 0.02 0.03 0.03 0.02 0.02 0.03 0.02 0.03 0.02 0.02 0.01 0.02 0.02 0.03 0.01 0.03 0.01 0.02 0.01 0.02 0.01 0.03 0.01 0.03 0 0.02 0.01 0.02 0 0.03 0 0.03 0.01 0.02 0 0zm-1.04 0l0 0 0 0 0 0 1.04 0 -1.04 0zm-0.25 0.77l0 -1.04 0 0 -0.09 0 -0.08 0.01 -0.11 0.01 -0.08 0.02 -0.05 0.01 -0.07 0.02 -0.06 0.02 -0.04 0.02 -0.03 0.01 -0.04 0.02 -0.04 0.02 -0.01 0.01 -0.01 0.01 -0.02 0.02 -0.02 0.01 -0.01 0.01 0 0 -0.01 0.01 -0.01 0.01 0 0 0 0.01 -0.01 0 0 0.01 0 0 0 0 0 0.01 0 0 0 0 0 0 0 0 0 0 0 0 2.08 0 -0.01 0.03 0 0.02 0 0.03 -0.01 0.03 0 0.02 -0.01 0.02 -0.01 0.03 -0.01 0.02 -0.01 0.03 -0.01 0.02 -0.02 0.03 -0.01 0.03 -0.02 0.02 -0.02 0.03 -0.02 0.02 -0.03 0.03 -0.02 0.02 -0.03 0.03 -0.04 0.03 -0.03 0.02 -0.04 0.02 -0.06 0.04 -0.06 0.03 -0.05 0.02 -0.06 0.03 -0.09 0.03 -0.09 0.02 -0.07 0.02 -0.1 0.02 -0.14 0.01 -0.11 0.01 -0.11 0.01 0 0zm-37.8 -1.04l37.8 0 0 1.04 -37.8 0 0 0 0 -1.04zm-1.28 0.27l2.07 0 0 0 0 0 0 0 0 0 0 0 0 0 0 0 0 -0.01 0 0 0 0 0 -0.01 -0.01 0 0 0 0 -0.01 -0.01 -0.01 -0.01 -0.01 0 0 -0.01 -0.01 -0.02 -0.02 -0.01 -0.01 -0.01 0 -0.03 -0.02 -0.03 -0.02 -0.04 -0.02 -0.04 -0.02 -0.03 -0.01 -0.06 -0.02 -0.07 -0.02 -0.05 -0.01 -0.08 -0.02 -0.11 -0.01 -0.08 -0.01 -0.09 0 0 1.04 -0.11 -0.01 -0.11 -0.01 -0.14 -0.01 -0.1 -0.02 -0.07 -0.02 -0.09 -0.02 -0.09 -0.03 -0.05 -0.03 -0.06 -0.02 -0.06 -0.03 -0.06 -0.03 -0.04 -0.03 -0.03 -0.02 -0.03 -0.03 -0.04 -0.03 -0.02 -0.02 -0.03 -0.03 -0.02 -0.02 -0.02 -0.03 -0.02 -0.03 -0.01 -0.02 -0.02 -0.03 -0.01 -0.02 -0.01 -0.03 -0.01 -0.02 -0.01 -0.03 -0.01 -0.02 0 -0.02 -0.01 -0.03 0 -0.03 0 -0.02 0 -0.03 0 0zm1.03 0l0 0 0 0 0 0 -1.03 0 1.03 0zm0.25 -0.76l0 1.03 0 0 0.09 0 0.08 -0.01 0.11 -0.01 0.08 -0.02 0.05 -0.01 0.07 -0.02 0.06 -0.02 0.03 -0.01 0.04 -0.02 0.04 -0.02 0.03 -0.02 0.03 -0.01 0.01 -0.01 0.01 -0.01 0.02 -0.01 0.01 -0.01 0 -0.01 0.01 -0.01 0.01 -0.01 0 0 0 -0.01 0.01 0 0 -0.01 0 0 0 0 0 0 0 -0.01 0 0.01 0 0 0 -0.01 0 0 0 0 -2.07 0 0 -0.02 0 -0.03 0 -0.03 0.01 -0.02 0 -0.02 0.01 -0.03 0.01 -0.03 0.01 -0.02 0.01 -0.02 0.01 -0.03 0.02 -0.03 0.01 -0.02 0.02 -0.03 0.02 -0.02 0.02 -0.03 0.03 -0.02 0.02 -0.03 0.04 -0.03 0.03 -0.02 0.03 -0.02 0.04 -0.03 0.06 -0.03 0.06 -0.04 0.06 -0.02 0.05 -0.02 0.09 -0.03 0.09 -0.03 0.07 -0.01 0.1 -0.02 0.14 -0.02 0.11 -0.01 0.11 0 0 0z"/>
    <path id="1" class="fil3" d="M143.68 59.56l37.8 0c0.14,0 0.25,0.12 0.25,0.25l0 0c0,0.14 -0.11,0.25 -0.25,0.25l-37.8 0c-0.14,0 -0.25,-0.11 -0.25,-0.25l0 0c0,-0.13 0.11,-0.25 0.25,-0.25z"/>
   </g>
  </g>
 </g>
</svg>
